<svg width="24" height="24" viewBox="0 0 24 24" fill="none" xmlns="http://www.w3.org/2000/svg">
<g clip-path="url(#clip0_12571_13372)">
<path d="M22 14.537V13C22 10.794 20.206 9 18 9C15.794 9 14 10.794 14 13V14.537C12.805 15.23 12 16.523 12 18V20C12 22.206 13.794 24 16 24H20C22.206 24 24 22.206 24 20V18C24 16.523 23.195 15.23 22 14.537ZM16 13C16 11.897 16.897 11 18 11C19.103 11 20 11.897 20 13V14H16V13ZM22 20C22 21.103 21.103 22 20 22H16C14.897 22 14 21.103 14 20V18C14 16.897 14.897 16 16 16H20C21.103 16 22 16.897 22 18V20ZM19.5 19C19.5 19.828 18.828 20.5 18 20.5C17.172 20.5 16.5 19.828 16.5 19C16.5 18.172 17.172 17.5 18 17.5C18.828 17.5 19.5 18.172 19.5 19ZM8 12C11.309 12 14 9.309 14 6C14 2.691 11.309 0 8 0C4.691 0 2 2.691 2 6C2 9.309 4.691 12 8 12ZM8 2C10.206 2 12 3.794 12 6C12 8.206 10.206 10 8 10C5.794 10 4 8.206 4 6C4 3.794 5.794 2 8 2ZM9.99 15.211C9.912 15.758 9.407 16.14 8.859 16.061C8.575 16.02 8.285 16 8 16C4.691 16 2 18.691 2 22V23C2 23.552 1.552 24 1 24C0.448 24 0 23.552 0 23V22C0 17.589 3.589 14 8 14C8.379 14 8.763 14.027 9.141 14.081C9.688 14.159 10.068 14.665 9.991 15.212L9.99 15.211Z" fill="#1C1C1C" fill-opacity="0.8"/>
</g>
<defs>
<clipPath id="clip0_12571_13372">
<rect width="24" height="24" fill="white"/>
</clipPath>
</defs>
</svg>
