<svg width="21" height="23" viewBox="0 0 21 23" fill="none" xmlns="http://www.w3.org/2000/svg">
<path d="M11.1001 14.3648V22.5002H0.600098C0.599772 21.218 0.892965 19.9528 1.45721 18.8015C2.02146 17.6501 2.84178 16.6432 3.85533 15.8579C4.86887 15.0726 6.04873 14.5298 7.30451 14.271C8.56029 14.0122 9.85864 14.0443 11.1001 14.3648ZM9.0001 13.0502C5.51935 13.0502 2.7001 10.2309 2.7001 6.7502C2.7001 3.26945 5.51935 0.450195 9.0001 0.450195C12.4808 0.450195 15.3001 3.26945 15.3001 6.7502C15.3001 10.2309 12.4808 13.0502 9.0001 13.0502ZM15.3001 17.2502V14.1002H17.4001V17.2502H20.5501V19.3502H17.4001V22.5002H15.3001V19.3502H12.1501V17.2502H15.3001Z" fill="#2A3A31"/>
</svg>
