<svg width="26" height="26" viewBox="0 0 26 26" fill="none" xmlns="http://www.w3.org/2000/svg">
<path d="M22.3333 13C22.3333 18.1547 18.1547 22.3333 13 22.3333M22.3333 13C22.3333 7.84535 18.1547 3.66667 13 3.66667M22.3333 13H25M13 22.3333C7.84535 22.3333 3.66667 18.1547 3.66667 13M13 22.3333V25M13 3.66667C7.84535 3.66667 3.66667 7.84535 3.66667 13M13 3.66667V1M3.66667 13H1M17 13C17 15.2092 15.2092 17 13 17C10.7908 17 9 15.2092 9 13C9 10.7908 10.7908 9 13 9C15.2092 9 17 10.7908 17 13Z" stroke="#1F9151" stroke-width="2" stroke-linecap="round" stroke-linejoin="round"/>
</svg>
