<svg width="32" height="32" viewBox="0 0 32 32" fill="none" xmlns="http://www.w3.org/2000/svg">
<path d="M2.66675 14.667L6.40941 10.4577C6.90978 9.89457 7.52376 9.44387 8.21091 9.13522C8.89806 8.82658 9.6428 8.667 10.3961 8.66699H10.6667M2.66675 26.0003H10.0001L15.3334 22.0003C15.3334 22.0003 16.4134 21.271 18.0001 20.0003C21.3334 17.3337 18.0001 13.1123 14.6667 15.3337C11.9521 17.143 9.33341 18.667 9.33341 18.667" stroke="black" stroke-width="1.5" stroke-linecap="round" stroke-linejoin="round"/>
<path d="M10.6667 18.0003V9.33366C10.6667 8.62641 10.9477 7.94814 11.4478 7.44804C11.9479 6.94794 12.6262 6.66699 13.3334 6.66699H26.6667C27.374 6.66699 28.0523 6.94794 28.5524 7.44804C29.0525 7.94814 29.3334 8.62641 29.3334 9.33366V17.3337C29.3334 18.0409 29.0525 18.7192 28.5524 19.2193C28.0523 19.7194 27.374 20.0003 26.6667 20.0003H18.0001" stroke="black" stroke-width="1.5"/>
<path d="M26 13.347L26.0133 13.3323M14 13.347L14.0133 13.3323M20 16.0003C19.2928 16.0003 18.6145 15.7194 18.1144 15.2193C17.6143 14.7192 17.3333 14.0409 17.3333 13.3337C17.3333 12.6264 17.6143 11.9481 18.1144 11.448C18.6145 10.9479 19.2928 10.667 20 10.667C20.7072 10.667 21.3855 10.9479 21.8856 11.448C22.3857 11.9481 22.6667 12.6264 22.6667 13.3337C22.6667 14.0409 22.3857 14.7192 21.8856 15.2193C21.3855 15.7194 20.7072 16.0003 20 16.0003Z" stroke="black" stroke-width="1.5" stroke-linecap="round" stroke-linejoin="round"/>
</svg>
