<svg width="24" height="24" viewBox="0 0 24 24" fill="none" xmlns="http://www.w3.org/2000/svg">
<g clip-path="url(#clip0_12571_13369)">
<path fill-rule="evenodd" clip-rule="evenodd" d="M20.3383 11.8244H21.7122C22.6695 11.8244 23.4528 12.6076 23.4528 13.565V17.127C23.4528 18.0844 22.6695 18.8678 21.7122 18.8678H20.3383C20.1143 18.8678 19.9311 18.6845 19.9311 18.4605V12.2316C19.9311 12.0077 20.1143 11.8244 20.3383 11.8244ZM16.9299 4.30866C18.8878 5.82862 20.0609 8.17027 20.0609 10.6785V11.108C20.1498 11.086 20.2427 11.0744 20.3383 11.0744H21.7122C21.7541 11.0744 21.7958 11.0755 21.8373 11.0775V10.6784C21.8373 7.56159 20.3518 4.66139 17.884 2.81147L16.9299 4.30866ZM3.93914 10.6785C3.93914 8.17027 5.11224 5.82862 7.07021 4.30866L6.11611 2.81152C3.64833 4.66139 2.16282 7.56169 2.16282 10.6785V11.0775C2.2043 11.0755 2.24602 11.0745 2.28797 11.0745H3.66183C3.75741 11.0745 3.85032 11.0861 3.93919 11.1081V10.6785H3.93914ZM17.4045 10.018C17.7271 10.018 17.9902 10.281 17.9902 10.6035V15.3982C17.9902 15.7207 17.7271 15.9838 17.4045 15.9838H16.5837V17.7641L14.1042 15.9838H9.75286C9.5993 15.9838 9.45919 15.9241 9.35457 15.8268L10.1372 15.2648H14.2472C14.9836 15.2648 15.5828 14.6657 15.5828 13.9292V10.018H17.4045ZM6.5956 8.54902H14.2472C14.5697 8.54902 14.8328 8.81203 14.8328 9.13467V13.9292C14.8328 14.2518 14.5697 14.5148 14.2472 14.5148H9.89588L7.41643 16.2952V14.5148H6.59555C6.273 14.5148 6.00994 14.2518 6.00994 13.9292V9.13467C6.00999 8.81203 6.27305 8.54902 6.5956 8.54902ZM7.75632 10.4154H13.0865C13.2936 10.4154 13.4615 10.2475 13.4615 10.0404C13.4615 9.8333 13.2936 9.66539 13.0865 9.66539H7.75632C7.54922 9.66539 7.38132 9.8333 7.38132 10.0404C7.38132 10.2475 7.54922 10.4154 7.75632 10.4154ZM7.75632 11.9069H13.0865C13.2936 11.9069 13.4615 11.739 13.4615 11.5319C13.4615 11.3248 13.2936 11.1569 13.0865 11.1569H7.75632C7.54922 11.1569 7.38132 11.3248 7.38132 11.5319C7.38132 11.739 7.54922 11.9069 7.75632 11.9069ZM7.75632 13.3985H13.0865C13.2936 13.3985 13.4615 13.2306 13.4615 13.0235C13.4615 12.8164 13.2936 12.6485 13.0865 12.6485H7.75632C7.54922 12.6485 7.38132 12.8164 7.38132 13.0235C7.38132 13.2306 7.54922 13.3985 7.75632 13.3985ZM10.9009 21.2781H13.0992C13.6047 21.2781 14.0375 21.6053 14.1962 22.0583C15.8523 22.0605 17.5087 22.0649 19.1648 22.0649C19.9842 22.0649 20.6502 21.3951 20.6502 20.5765V19.6177H21.4002V20.5765C21.4002 21.807 20.3963 22.8149 19.1648 22.8149C17.5105 22.8149 15.8559 22.8085 14.2016 22.8054C14.0475 23.2668 13.6106 23.6016 13.0992 23.6016H10.9008C10.2619 23.6016 9.73908 23.0788 9.73908 22.4399C9.73913 21.8008 10.2618 21.2781 10.9009 21.2781ZM6.49618 2.01225C8.13614 0.965156 10.0535 0.398438 12.0001 0.398438C13.9466 0.398438 15.8639 0.965156 17.5039 2.01225L16.0793 4.24786C14.8495 3.4627 13.4585 3.06042 12.0001 3.06042C10.5417 3.06042 9.15057 3.4627 7.9208 4.24786L6.49618 2.01225ZM3.66178 11.8244H2.28797C1.33069 11.8244 0.547363 12.6076 0.547363 13.565V17.127C0.547363 18.0844 1.33069 18.8678 2.28797 18.8678H3.66183C3.8858 18.8678 4.06908 18.6845 4.06908 18.4605V12.2316C4.06904 12.0077 3.8858 11.8244 3.66178 11.8244Z" fill="#1C1C1C" fill-opacity="0.8"/>
</g>
<defs>
<clipPath id="clip0_12571_13369">
<rect width="24" height="24" fill="white"/>
</clipPath>
</defs>
</svg>
