<svg width="12" height="18" viewBox="0 0 12 18" fill="none" xmlns="http://www.w3.org/2000/svg">
<path d="M11.25 4.5V15C11.25 15.3978 11.092 15.7794 10.8107 16.0607C10.5294 16.342 10.1478 16.5 9.75 16.5H2.25C1.85218 16.5 1.47064 16.342 1.18934 16.0607C0.908035 15.7794 0.75 15.3978 0.75 15V4.5M3 4.5V3C3 2.60218 3.15804 2.22064 3.43934 1.93934C3.72064 1.65804 4.10218 1.5 4.5 1.5H7.5C7.89782 1.5 8.27936 1.65804 8.56066 1.93934C8.84196 2.22064 9 2.60218 9 3V4.5" stroke="#A09797" stroke-width="1.33333" stroke-linecap="round" stroke-linejoin="round"/>
</svg>
