<svg width="36" height="36" viewBox="0 0 36 36" fill="none" xmlns="http://www.w3.org/2000/svg">
<path d="M11.25 13.5H12.75H24.75" stroke="#A09797" stroke-width="1.33333" stroke-linecap="round" stroke-linejoin="round"/>
<path d="M23.25 13.5V24C23.25 24.3978 23.092 24.7794 22.8107 25.0607C22.5294 25.342 22.1478 25.5 21.75 25.5H14.25C13.8522 25.5 13.4706 25.342 13.1893 25.0607C12.908 24.7794 12.75 24.3978 12.75 24V13.5M15 13.5V12C15 11.6022 15.158 11.2206 15.4393 10.9393C15.7206 10.658 16.1022 10.5 16.5 10.5H19.5C19.8978 10.5 20.2794 10.658 20.5607 10.9393C20.842 11.2206 21 11.6022 21 12V13.5" stroke="#A09797" stroke-width="1.33333" stroke-linecap="round" stroke-linejoin="round"/>
<path d="M16.5 17.25V21.75" stroke="#A09797" stroke-width="1.33333" stroke-linecap="round" stroke-linejoin="round"/>
<path d="M19.5 17.25V21.75" stroke="#A09797" stroke-width="1.33333" stroke-linecap="round" stroke-linejoin="round"/>
</svg>
