<svg width="24" height="24" viewBox="0 0 24 24" fill="none" xmlns="http://www.w3.org/2000/svg">
<path d="M5.25 1.5C5.05109 1.5 4.86032 1.57902 4.71967 1.71967C4.57902 1.86032 4.5 2.05109 4.5 2.25V21.75C4.5 21.9489 4.57902 22.1397 4.71967 22.2803C4.86032 22.421 5.05109 22.5 5.25 22.5H9.75V21H6V3H18V10.5H19.5V2.25C19.5 2.05109 19.421 1.86032 19.2803 1.71967C19.1397 1.57902 18.9489 1.5 18.75 1.5H5.25Z" fill="black"/>
<path d="M7.5 7.5H16.5V6H7.5V7.5ZM7.5 10.5H13.5V9H7.5V10.5Z" fill="black"/>
<path fill-rule="evenodd" clip-rule="evenodd" d="M15.75 12C14.3576 12 13.0223 12.5531 12.0377 13.5377C11.0531 14.5223 10.5 15.8576 10.5 17.25C10.5 18.6424 11.0531 19.9777 12.0377 20.9623C13.0223 21.9469 14.3576 22.5 15.75 22.5C17.1424 22.5 18.4777 21.9469 19.4623 20.9623C20.4469 19.9777 21 18.6424 21 17.25C21 15.8576 20.4469 14.5223 19.4623 13.5377C18.4777 12.5531 17.1424 12 15.75 12ZM15 14.25V17.25C14.9998 17.3486 15.0191 17.4462 15.0567 17.5373C15.0942 17.6284 15.1494 17.7112 15.219 17.781L17.469 20.031L18.531 18.969L16.5 16.9395V14.25H15Z" fill="black"/>
</svg>
