<svg width="32" height="32" viewBox="0 0 32 32" fill="none" xmlns="http://www.w3.org/2000/svg">
<path d="M3.33325 16C3.33325 10.0289 3.33325 7.04329 5.18824 5.1883C7.04323 3.33331 10.0288 3.33331 15.9999 3.33331C21.971 3.33331 24.9566 3.33331 26.8116 5.1883C28.6666 7.04329 28.6666 10.0289 28.6666 16C28.6666 21.9711 28.6666 24.9567 26.8116 26.8117C24.9566 28.6666 21.971 28.6666 15.9999 28.6666C10.0288 28.6666 7.04323 28.6666 5.18824 26.8117C3.33325 24.9567 3.33325 21.9711 3.33325 16Z" stroke="white" stroke-width="1.5" stroke-linejoin="round"/>
<path d="M22 16C22 19.3137 19.3137 22 16 22C12.6863 22 10 19.3137 10 16C10 12.6863 12.6863 10 16 10C19.3137 10 22 12.6863 22 16Z" stroke="white" stroke-width="1.5"/>
<path d="M23.3438 8.66666L23.3318 8.66666" stroke="white" stroke-width="2" stroke-linecap="round" stroke-linejoin="round"/>
</svg>
