<svg width="32" height="32" viewBox="0 0 32 32" fill="none" xmlns="http://www.w3.org/2000/svg">
<path d="M6.00008 12.6667H5.33341C4.07634 12.6667 3.4478 12.6667 3.05727 13.0572C2.66675 13.4477 2.66675 14.0762 2.66675 15.3333V26.6667C2.66675 27.9237 2.66675 28.5523 3.05727 28.9428C3.4478 29.3333 4.07634 29.3333 5.33341 29.3333H6.00008C7.25716 29.3333 7.8857 29.3333 8.27622 28.9428C8.66675 28.5523 8.66675 27.9237 8.66675 26.6667V15.3333C8.66675 14.0762 8.66675 13.4477 8.27622 13.0572C7.8857 12.6667 7.25716 12.6667 6.00008 12.6667Z" stroke="white" stroke-width="1.5"/>
<path d="M8.66675 5.66666C8.66675 7.32351 7.3236 8.66666 5.66675 8.66666C4.00989 8.66666 2.66675 7.32351 2.66675 5.66666C2.66675 4.0098 4.00989 2.66666 5.66675 2.66666C7.3236 2.66666 8.66675 4.0098 8.66675 5.66666Z" stroke="white" stroke-width="1.5"/>
<path d="M16.4348 12.6667H15.3334C14.0763 12.6667 13.4478 12.6667 13.0573 13.0572C12.6667 13.4477 12.6667 14.0762 12.6667 15.3333V26.6667C12.6667 27.9237 12.6667 28.5523 13.0573 28.9428C13.4478 29.3333 14.0763 29.3333 15.3334 29.3333H16.0001C17.2572 29.3333 17.8857 29.3333 18.2762 28.9428C18.6668 28.5523 18.6668 27.9237 18.6668 26.6667L18.6668 22.0001C18.6668 19.791 19.3709 18.0001 21.4506 18.0001C22.4904 18.0001 23.3334 18.8956 23.3334 20.0001V26.0001C23.3334 27.2572 23.3334 27.8858 23.7239 28.2763C24.1144 28.6668 24.7429 28.6668 26 28.6668H26.6651C27.9219 28.6668 28.5503 28.6668 28.9408 28.2764C29.3313 27.886 29.3314 27.2576 29.3317 26.0008L29.3335 18.667C29.3335 15.3533 26.1819 12.667 23.0624 12.667C21.2867 12.667 19.7023 13.5374 18.6668 14.8986C18.6668 14.0586 18.6668 13.6386 18.4843 13.3267C18.3687 13.1291 18.2043 12.9647 18.0068 12.8491C17.6948 12.6667 17.2748 12.6667 16.4348 12.6667Z" stroke="white" stroke-width="1.5" stroke-linejoin="round"/>
</svg>
