<svg width="24" height="24" viewBox="0 0 24 24" fill="none" xmlns="http://www.w3.org/2000/svg">
<path d="M11.28 9.95914C11.28 10.3568 11.6024 10.6791 12 10.6791C12.3977 10.6791 12.72 10.3568 12.72 9.95914H11.28ZM12.72 4.3201C12.72 3.92246 12.3977 3.6001 12 3.6001C11.6024 3.6001 11.28 3.92246 11.28 4.3201H12.72ZM9.41842 6.8752C9.78032 6.71041 9.94006 6.28344 9.77533 5.92155C9.6105 5.55966 9.18354 5.39989 8.82165 5.56468L9.41842 6.8752ZM5.28003 12.1537L4.55994 12.15L4.56008 12.1621L5.28003 12.1537ZM12 18.7201L12.0083 18.0001C12.0028 18.0001 11.9972 18.0001 11.9918 18.0001L12 18.7201ZM18.72 12.1537L19.4401 12.1621L19.44 12.15L18.72 12.1537ZM15.1784 5.56468C14.8165 5.39989 14.3896 5.55966 14.2247 5.92155C14.06 6.28344 14.2197 6.71041 14.5817 6.8752L15.1784 5.56468ZM12.72 9.95914V4.3201H11.28V9.95914H12.72ZM8.82165 5.56468C6.23853 6.74094 4.57481 9.31163 4.55994 12.15L6.00002 12.1574C6.01196 9.88077 7.34639 7.81872 9.41842 6.8752L8.82165 5.56468ZM4.56008 12.1621C4.60741 16.2285 7.9419 19.4868 12.0083 19.4401L11.9918 18.0001C8.72052 18.0377 6.03806 15.4165 5.99998 12.1453L4.56008 12.1621ZM11.9918 19.4401C16.0581 19.4868 19.3929 16.2285 19.4401 12.1621L18.0001 12.1453C17.962 15.4165 15.2796 18.0377 12.0083 18.0001L11.9918 19.4401ZM19.44 12.15C19.4252 9.31163 17.7616 6.74094 15.1784 5.56468L14.5817 6.8752C16.6536 7.81872 17.9881 9.88077 18 12.1574L19.44 12.15Z" fill="#1C1C1C" fill-opacity="0.8"/>
</svg>
