<svg width="24" height="24" viewBox="0 0 24 24" fill="none" xmlns="http://www.w3.org/2000/svg">
<path d="M19.3679 2.98771H15.7683V2.1674C15.7683 1.96849 15.6893 1.77772 15.5486 1.63707C15.408 1.49642 15.2172 1.4174 15.0183 1.4174H13.9248C13.7972 1.0067 13.5415 0.647601 13.1952 0.392582C12.8489 0.137563 12.4301 0 12 0C11.5699 0 11.1511 0.137563 10.8048 0.392582C10.4585 0.647601 10.2029 1.0067 10.0752 1.4174H8.98172C8.78281 1.4174 8.59204 1.49642 8.45139 1.63707C8.31074 1.77772 8.23172 1.96849 8.23172 2.1674V2.98771H4.63209C4.16382 2.98826 3.71489 3.17452 3.38377 3.50564C3.05265 3.83676 2.86639 4.28569 2.86584 4.75396V22.2337C2.86638 22.7019 3.05264 23.1509 3.38376 23.482C3.71488 23.8131 4.16382 23.9994 4.63209 23.9999H19.3679C19.8362 23.9994 20.2851 23.8131 20.6162 23.482C20.9474 23.1509 21.1336 22.7019 21.1342 22.2337V4.75396C21.1336 4.28569 20.9474 3.83676 20.6162 3.50564C20.2851 3.17452 19.8362 2.98826 19.3679 2.98771ZM9.73172 2.9174H10.7438C10.8498 2.9174 10.9546 2.89492 11.0512 2.85145C11.1479 2.80799 11.2343 2.74452 11.3047 2.66524C11.375 2.58595 11.4278 2.49265 11.4595 2.39149C11.4911 2.29032 11.501 2.18359 11.4884 2.07834C11.4859 2.05739 11.4846 2.0363 11.4846 2.0152C11.4846 1.87855 11.5388 1.74749 11.6355 1.65086C11.7321 1.55423 11.8632 1.49995 11.9998 1.49995C12.1365 1.49995 12.2675 1.55423 12.3642 1.65086C12.4608 1.74749 12.5151 1.87855 12.5151 2.0152C12.515 2.03618 12.5138 2.05714 12.5113 2.07796C12.4986 2.18329 12.5084 2.29011 12.5401 2.39136C12.5717 2.49262 12.6245 2.58601 12.6949 2.66536C12.7653 2.74471 12.8517 2.80823 12.9485 2.85171C13.0453 2.89518 13.1502 2.91764 13.2563 2.91759H14.2683V4.67981H9.73172V2.9174ZM19.6342 22.2337C19.6332 22.304 19.6049 22.3712 19.5552 22.4209C19.5054 22.4706 19.4382 22.499 19.3679 22.4999H4.63209C4.56177 22.499 4.49458 22.4706 4.44485 22.4209C4.39511 22.3712 4.36677 22.304 4.36584 22.2337V4.75396C4.36677 4.68364 4.39511 4.61645 4.44485 4.56672C4.49458 4.51698 4.56177 4.48864 4.63209 4.48771H8.23172V5.4299C8.23172 5.62881 8.31074 5.81958 8.45139 5.96023C8.59204 6.10088 8.78281 6.1799 8.98172 6.1799H15.0183C15.2172 6.1799 15.408 6.10088 15.5486 5.96023C15.6893 5.81958 15.7683 5.62881 15.7683 5.4299V4.48771H19.3679C19.4382 4.48864 19.5054 4.51698 19.5552 4.56672C19.6049 4.61645 19.6332 4.68364 19.6342 4.75396V22.2337ZM16.4828 10.7337C16.4423 10.5713 16.3487 10.4271 16.2168 10.324C16.0849 10.2209 15.9224 10.1649 15.755 10.1649H10.4164L10.2278 9.474C10.1652 9.23486 10.0248 9.02337 9.82864 8.87286C9.63253 8.72235 9.39191 8.64138 9.1447 8.64271H7.17755C6.97864 8.64271 6.78787 8.72173 6.64722 8.86238C6.50657 9.00304 6.42755 9.1938 6.42755 9.39271C6.42755 9.59163 6.50657 9.78239 6.64722 9.92304C6.78787 10.0637 6.97864 10.1427 7.17755 10.1427H8.85567L10.29 15.3987C10.3333 15.5574 10.4276 15.6975 10.5583 15.7974C10.689 15.8973 10.8489 15.9514 11.0134 15.9515H16.8225C16.9364 15.9515 17.0488 15.9255 17.1512 15.8756C17.2536 15.8257 17.3432 15.7531 17.4134 15.6633C17.4835 15.5735 17.5323 15.469 17.556 15.3576C17.5797 15.2461 17.5778 15.1308 17.5502 15.0202L16.4828 10.7337ZM11.5861 14.4515L10.8258 11.6649H15.1688L15.8625 14.4512L11.5861 14.4515ZM12.7615 17.5951C12.7615 17.7434 12.7176 17.8884 12.6352 18.0117C12.5528 18.1351 12.4357 18.2312 12.2986 18.288C12.1616 18.3447 12.0108 18.3596 11.8654 18.3307C11.7199 18.3018 11.5862 18.2304 11.4813 18.1256C11.3764 18.0207 11.305 17.8871 11.276 17.7416C11.247 17.5962 11.2618 17.4454 11.3185 17.3083C11.3752 17.1713 11.4713 17.0541 11.5946 16.9717C11.7179 16.8892 11.8628 16.8452 12.0112 16.8451H12.0115C12.2104 16.8451 12.4011 16.9241 12.5418 17.0647C12.6824 17.2053 12.7615 17.396 12.7615 17.5949V17.5951ZM16.4215 17.5951C16.4215 17.7434 16.3775 17.8884 16.2951 18.0117C16.2127 18.1351 16.0956 18.2312 15.9586 18.288C15.8216 18.3447 15.6708 18.3596 15.5253 18.3307C15.3798 18.3018 15.2462 18.2304 15.1413 18.1256C15.0364 18.0207 14.9649 17.8871 14.9359 17.7416C14.907 17.5962 14.9218 17.4454 14.9785 17.3083C15.0352 17.1713 15.1312 17.0541 15.2545 16.9717C15.3778 16.8892 15.5228 16.8452 15.6711 16.8451H15.6715C15.8704 16.8451 16.0611 16.9241 16.2017 17.0647C16.3424 17.2053 16.4214 17.396 16.4215 17.5949V17.5951Z" fill="#1C1C1C" fill-opacity="0.8"/>
</svg>
