<svg width="16" height="16" viewBox="0 0 16 16" fill="none" xmlns="http://www.w3.org/2000/svg">
<path fill-rule="evenodd" clip-rule="evenodd" d="M14.0573 1.247C13.6668 0.856471 13.0336 0.85647 12.6431 1.24699L11.2287 2.6614L13.35 4.78272L14.7644 3.36832C15.155 2.97779 15.155 2.34463 14.7644 1.9541L14.0573 1.247ZM12.6429 5.48982L10.5216 3.3685L3.45074 10.4394L5.57206 12.5607L12.6429 5.48982ZM2.14234 11.7478L2.74363 11.1465L4.86495 13.2678L4.26366 13.8691C4.16643 13.9663 4.05019 14.0425 3.92221 14.0927L1.68993 14.9697C1.28352 15.1294 0.88207 14.7279 1.04173 14.3215L1.9187 12.0892C1.96898 11.9612 2.04511 11.845 2.14234 11.7478ZM5.99989 14.9998L15.0001 14.9999L15.0001 12.9999L7.99989 12.9998L5.99989 14.9998Z" fill="#1C1C1C" fill-opacity="0.4"/>
</svg>
