<svg width="16" height="16" viewBox="0 0 16 16" fill="none" xmlns="http://www.w3.org/2000/svg">
<path fill-rule="evenodd" clip-rule="evenodd" d="M7 13C3.68629 13 1 10.3137 1 7C1 3.68629 3.68629 1 7 1C10.3137 1 13 3.68629 13 7C13 8.29603 12.5891 9.49608 11.8904 10.477C11.8985 10.4845 11.9064 10.4922 11.9142 10.5L15 13.5858C15.3905 13.9763 15.3905 14.6095 15 15C14.6095 15.3905 13.9763 15.3905 13.5858 15L10.5 11.9142C10.4922 11.9064 10.4845 11.8985 10.477 11.8904C9.49608 12.5891 8.29603 13 7 13ZM7 11C9.20914 11 11 9.20914 11 7C11 4.79086 9.20914 3 7 3C4.79086 3 3 4.79086 3 7C3 9.20914 4.79086 11 7 11Z" fill="#1F9151"/>
</svg>
