<svg width="50" height="37" viewBox="0 0 50 37" fill="none" xmlns="http://www.w3.org/2000/svg">
<path d="M2.84375 0C1.28516 0 0 1.28516 0 2.84375V29C0 30.6602 1.33984 32 3 32H7.09375C7.57031 34.8359 10.0352 37 13 37C15.9648 37 18.4297 34.8359 18.9062 32H28.1562C28.8945 32 29.5547 31.6875 30.0625 31.2188C30.582 31.6758 31.2461 31.9922 32 32H33.0938C33.5703 34.8359 36.0352 37 39 37C42.3008 37 45 34.3008 45 31C45 27.6992 42.3008 25 39 25C36.0352 25 33.5703 27.1641 33.0938 30H32C31.8125 30 31.5273 29.8711 31.3125 29.6562C31.0977 29.4414 31 29.1836 31 29V10C31 9.625 31.625 9 32 9H40C40.7852 9 41.8906 9.83984 42.6562 10.75C42.6641 10.7617 42.6797 10.7695 42.6875 10.7812L42.8438 11H38C36.4062 11 35 12.2891 35 14V18C35 18.832 35.375 19.5625 35.9062 20.0938C36.4375 20.625 37.168 21 38 21H48V29C48 29.375 47.375 30 47 30H45V32H47C48.6602 32 50 30.6602 50 29V19.375C50 17.0859 48.4062 15.0625 48.4062 15.0625H48.375L44.25 9.5625V9.53125L44.2188 9.5C43.2969 8.38672 41.9141 7 40 7H32C31.6445 7 31.3164 7.07422 31 7.1875V2.90625C31 1.37109 29.7891 0 28.1875 0H2.84375ZM2.84375 2H28.1875C28.6172 2 29 2.41406 29 2.90625V29.1562C29 29.625 28.6289 30 28.1562 30H18.9062C18.4297 27.1641 15.9648 25 13 25C10.0352 25 7.57031 27.1641 7.09375 30H3C2.625 30 2 29.3711 2 29V2.84375C2 2.375 2.36719 2 2.84375 2ZM38 13H44.3438L46.7812 16.25C46.7812 16.25 47.6875 17.8008 47.875 19H38C37.832 19 37.5625 18.875 37.3438 18.6562C37.125 18.4375 37 18.168 37 18V14C37 13.4961 37.5938 13 38 13ZM13 27C15.2227 27 17 28.7773 17 31C17 33.2227 15.2227 35 13 35C10.7773 35 9 33.2227 9 31C9 28.7773 10.7773 27 13 27ZM39 27C41.2227 27 43 28.7773 43 31C43 33.2227 41.2227 35 39 35C36.7773 35 35 33.2227 35 31C35 28.7773 36.7773 27 39 27Z" fill="#1C1C1C" fill-opacity="0.8"/>
</svg>
