<svg width="32" height="32" viewBox="0 0 32 32" fill="none" xmlns="http://www.w3.org/2000/svg">
<path d="M16.0001 29.3334C23.3639 29.3334 29.3334 23.3638 29.3334 16C29.3334 8.63622 23.3639 2.66669 16.0001 2.66669C8.63628 2.66669 2.66675 8.63622 2.66675 16C2.66675 17.8385 3.03885 19.5901 3.71184 21.1836C4.08379 22.0642 4.26976 22.5045 4.29279 22.8373C4.31581 23.1701 4.21787 23.5362 4.02197 24.2683L2.66675 29.3334L7.73178 27.9781C8.46393 27.7822 8.83 27.6843 9.16278 27.7073C9.49556 27.7303 9.93588 27.9163 10.8165 28.2883C12.41 28.9613 14.1616 29.3334 16.0001 29.3334Z" stroke="white" stroke-width="1.5" stroke-linejoin="round"/>
<path d="M11.451 16.5031L12.6123 15.0609C13.1017 14.453 13.7068 13.8871 13.7541 13.0777C13.7661 12.8733 13.6222 11.9554 13.3346 10.1198C13.2215 9.39843 12.548 9.33334 11.9646 9.33334C11.2044 9.33334 10.8242 9.33334 10.4468 9.50576C9.96968 9.72368 9.47988 10.3364 9.37239 10.8498C9.28735 11.256 9.35055 11.5358 9.47694 12.0956C10.0138 14.4731 11.2732 16.8211 13.2261 18.774C15.179 20.7269 17.5271 21.9864 19.9046 22.5232C20.4643 22.6496 20.7442 22.7128 21.1504 22.6278C21.6638 22.5203 22.2765 22.0305 22.4944 21.5534C22.6668 21.1759 22.6668 20.7958 22.6668 20.0356C22.6668 19.4522 22.6017 18.7787 21.8803 18.6656C20.0447 18.3779 19.1269 18.2341 18.9225 18.2461C18.1131 18.2934 17.5472 18.8985 16.9393 19.3879L15.497 20.5491" stroke="white" stroke-width="1.5"/>
</svg>
