<svg width="58" height="54" viewBox="0 0 58 54" fill="none" xmlns="http://www.w3.org/2000/svg">
<rect width="57.7887" height="53.5" rx="5" fill="#016146"/>
<path fill-rule="evenodd" clip-rule="evenodd" d="M19.1793 5.14876C19.2921 5.23177 19.6965 5.54788 20.0778 5.85121C20.4592 6.15451 20.869 6.47952 20.9885 6.57344C21.3379 6.84813 21.3373 6.84668 21.3703 7.49054C21.4138 8.33706 21.4139 9.26599 21.3706 9.34691C21.2279 9.61351 20.6157 9.57271 20.5584 9.2928C20.5466 9.235 20.5272 8.79285 20.5153 8.31029C20.5035 7.8277 20.4863 7.39391 20.4772 7.3463C20.4653 7.28363 20.3662 7.18556 20.1191 6.99153C19.9312 6.844 19.5801 6.5668 19.339 6.37548C18.991 6.09936 18.8855 6.03137 18.827 6.04576C18.7338 6.06872 18.1139 6.36806 17.9008 6.49297C17.5236 6.71419 16.5596 7.19097 16.4896 7.19097C16.4477 7.19097 16.3901 7.17285 16.3617 7.15066C16.2861 7.09177 16.0463 6.70625 16.0463 6.64372C16.0463 6.58695 16.1583 6.47214 16.3248 6.35803C16.4657 6.26153 17.4586 5.73249 18.1911 5.36362C18.5281 5.19388 18.8177 5.04216 18.8345 5.02642C18.8944 4.9705 18.9768 4.99975 19.1793 5.14876ZM13.8827 6.17145C14.0024 6.23156 14.2198 6.35557 14.3657 6.44701C14.5116 6.53844 14.9894 6.82114 15.4273 7.07519C15.8653 7.32927 16.4183 7.65518 16.6562 7.79945C16.894 7.94375 17.0935 8.06179 17.0994 8.06179C17.1053 8.06179 17.3389 8.19718 17.6184 8.36267C18.3039 8.76853 18.8345 9.07916 19.4328 9.42497C19.7077 9.58387 20.1069 9.81902 20.3197 9.94752C20.5326 10.076 21.0188 10.3627 21.4002 10.5847C22.6429 11.308 23.4466 11.7934 23.5309 11.8715C23.6098 11.9447 23.6126 11.959 23.5918 12.1847C23.5652 12.4747 23.513 12.5383 23.2795 12.566C23.1212 12.5847 23.0985 12.5768 22.749 12.3819C22.3254 12.1455 21.0865 11.4279 20.8035 11.2549C20.6971 11.1899 20.385 11.0092 20.1101 10.8534C19.8351 10.6976 19.4868 10.4942 19.336 10.4013C19.1853 10.3084 18.7789 10.0676 18.433 9.86627C18.0871 9.66495 17.7678 9.47596 17.7234 9.44628C17.6791 9.41664 17.3308 9.21149 16.9494 8.9904C16.568 8.76931 15.777 8.30803 15.1916 7.96535C13.2115 6.80611 13.2601 6.83949 13.2322 6.61969C13.2085 6.43259 13.2778 6.305 13.4721 6.1777C13.5664 6.11594 13.6483 6.06466 13.6542 6.06379C13.6601 6.06289 13.7629 6.11133 13.8827 6.17145ZM15.6372 8.96879C15.676 8.98869 15.7475 9.04223 15.7963 9.0877C15.9115 9.19507 15.9107 9.28186 15.7897 9.86666C15.65 10.5412 15.6166 10.8991 15.6362 11.5098C15.657 12.1566 15.723 12.4577 15.9413 12.8996C16.187 13.3973 16.564 13.7268 17.0139 13.837C17.2651 13.8986 17.6725 13.8928 17.8686 13.8248C18.385 13.6457 18.828 13.0239 19.1876 11.9736C19.2679 11.7393 19.3714 11.4902 19.4177 11.4202C19.5754 11.182 19.8174 11.1653 20.0511 11.3765C20.1796 11.4926 20.1815 11.4975 20.162 11.6634C20.1338 11.9034 19.9454 12.5041 19.7768 12.8916C19.5593 13.3915 19.2285 13.8923 18.9382 14.161C18.7604 14.3256 18.3278 14.5947 18.1105 14.6758C17.9206 14.7468 17.852 14.7541 17.3848 14.7541C16.8372 14.7541 16.7451 14.735 16.3593 14.5405C15.9715 14.345 15.4384 13.8407 15.208 13.4513C14.7138 12.6161 14.5744 11.3995 14.824 10.0986C14.8926 9.74101 15.0545 9.21039 15.1209 9.12537C15.2569 8.95144 15.4748 8.88535 15.6372 8.96879ZM13.9267 13.3301C14.065 13.3881 14.4475 13.6946 14.9981 14.1886C15.2464 14.4114 15.8072 14.8946 16.2443 15.2624C16.7565 15.6933 17.046 15.9586 17.0585 16.0087C17.0693 16.0514 17.121 16.5486 17.1736 17.1135C17.2722 18.1735 17.389 19.233 17.5001 20.0758C17.5352 20.3419 17.5916 20.835 17.6254 21.1717L17.687 21.7839L17.9087 21.9942C18.0306 22.1098 18.4198 22.4787 18.7735 22.8138C19.6926 23.6847 20.9682 24.9563 21.0699 25.1031L21.1565 25.2281L21.0768 25.3684C20.9881 25.5245 20.614 25.9383 19.9334 26.6331C19.4662 27.1099 19.3026 27.2421 19.2318 27.1997C19.14 27.1447 18.3355 26.5312 18.1073 26.3422C17.9725 26.2306 17.5299 25.8712 17.1236 25.5437C16.7173 25.2162 16.2108 24.8016 15.9979 24.6225C15.4001 24.1193 14.457 23.3716 14.344 23.3112C14.23 23.2503 14.2286 23.2459 14.1754 22.7527C14.1543 22.5576 14.1017 22.1447 14.0585 21.8352C13.8395 20.2679 13.688 19.1355 13.6116 18.4954C13.565 18.1052 13.5059 17.6293 13.4804 17.4381C13.4548 17.2467 13.4339 17.0106 13.4339 16.9132C13.4339 16.7375 13.435 16.7356 13.5853 16.6402C13.8104 16.4974 14.1228 16.5141 14.2081 16.6735C14.2973 16.8402 14.4684 18.0063 14.835 20.9466C14.95 21.869 15.0594 22.6673 15.0781 22.7205C15.098 22.7771 15.162 22.8465 15.2325 22.8879C15.3411 22.9516 15.5567 23.123 16.4817 23.8808C17.1698 24.4445 18.205 25.301 18.3685 25.4419C18.5567 25.604 19.0992 26.0317 19.1663 26.0709C19.2078 26.0951 19.8199 25.5105 19.9307 25.3408C20.0038 25.2289 20.0352 25.2691 19.3697 24.6234C19.0772 24.3395 18.5254 23.8013 18.1436 23.4273C17.7617 23.0533 17.3156 22.6198 17.1522 22.4641C16.974 22.2943 16.8423 22.1406 16.823 22.0798C16.7787 21.9411 16.6383 20.7848 16.5776 20.0597C16.4609 18.6644 16.2502 16.6211 16.2046 16.4427C16.1815 16.3519 16.1214 16.2821 15.9412 16.1368C15.8127 16.0332 15.4037 15.687 15.0322 15.3675C13.6581 14.1854 13.7463 14.2542 13.6047 14.2542C13.3313 14.2542 12.5711 14.5083 12.1599 14.7371C11.8585 14.9048 11.3948 15.2416 11.0774 15.5235C10.0135 16.4681 8.89957 18.2398 8.07333 20.3016C7.53907 21.6347 7.06841 23.062 6.74015 24.3446C6.62372 24.7995 6.47868 25.3531 6.41782 25.5748C6.30474 25.9869 6.11294 26.9358 6.04995 27.3949C6.02586 27.5705 6.02525 27.6613 6.04802 27.684C6.06804 27.7041 6.44278 27.7266 6.99191 27.7408C7.49279 27.7537 8.16383 27.7798 8.48313 27.7986C9.20452 27.8412 11.7238 27.9519 12.5469 27.9772C13.8908 28.0186 14.8127 28.0626 14.9675 28.0928C15.1692 28.1322 15.24 28.2318 15.24 28.476C15.24 28.8184 15.0963 28.9291 14.6524 28.9289C14.5055 28.9288 13.4492 28.8861 12.305 28.834C10.3538 28.7451 9.65663 28.7205 6.7415 28.638C5.18323 28.594 5.23954 28.601 5.12056 28.4344C5.06783 28.3606 5.01526 28.2699 5.00375 28.2329C4.97485 28.1402 5.11824 27.3176 5.2566 26.7825C5.31959 26.5389 5.4219 26.0695 5.48395 25.7395C5.64409 24.8877 5.6765 24.7503 5.85382 24.1718C5.94081 23.888 6.09233 23.355 6.19051 22.9875C6.28868 22.6199 6.40421 22.2353 6.4472 22.1328C6.49016 22.0303 6.6013 21.7215 6.69409 21.4465C6.9047 20.8227 7.45589 19.4778 7.79787 18.7534C8.57521 17.1069 9.56913 15.6948 10.5732 14.8105C11.0315 14.4069 11.2094 14.2745 11.6225 14.0297C12.1217 13.7338 12.578 13.5674 13.3923 13.3843C13.6192 13.3333 13.8089 13.2904 13.8139 13.2891C13.8189 13.2878 13.8697 13.3062 13.9267 13.3301ZM46.098 18.1434C46.2729 18.2579 46.8311 19.1247 47.1803 19.8241C47.4274 20.319 47.6753 20.9246 47.8124 21.3677C48.1921 22.5953 48.147 23.7998 47.686 24.7431C47.3568 25.4166 46.8997 25.9298 46.2506 26.3544C45.8055 26.6457 45.5824 26.7478 45.4469 26.7224C45.168 26.6701 44.8013 26.2375 44.4592 25.5571C44.2923 25.2252 44.2427 25.0824 44.1191 24.5777C43.7546 23.0892 43.7404 22.572 44.0284 21.2691C44.1823 20.573 44.3199 20.1741 44.5897 19.6423C44.8486 19.1322 45.0397 18.8294 45.3297 18.4699C45.5963 18.1392 45.7246 18.05 45.8958 18.0759C45.9668 18.0867 46.0578 18.1171 46.098 18.1434ZM45.6654 19.5152C45.5089 19.7571 45.2139 20.3582 45.0866 20.6943C44.9832 20.9676 44.8606 21.4721 44.8183 21.7983C44.7734 22.1446 44.7729 23.1688 44.8174 23.626C44.8796 24.2643 45.014 24.6812 45.4222 25.5022C45.4862 25.6308 45.5518 25.7361 45.568 25.7361C45.6393 25.7361 46.0506 25.4074 46.3327 25.125C46.6911 24.7663 46.8902 24.4505 47.0393 24.0047C47.2242 23.4516 47.2422 22.7725 47.0894 22.1135C46.9449 21.4906 46.6458 20.6935 46.3489 20.1403C46.2727 19.9984 46.1403 19.748 46.0547 19.5839C45.9691 19.4198 45.8798 19.2856 45.8565 19.2856C45.833 19.2856 45.7471 19.3889 45.6654 19.5152ZM11.6699 19.7348C11.8093 19.7878 11.8811 19.9631 12.0163 20.5802C12.0877 20.9059 12.1961 21.3683 12.2574 21.6078C12.3186 21.8472 12.47 22.5584 12.5937 23.1881C12.7175 23.8179 12.8374 24.3861 12.8602 24.451C12.907 24.5839 13.0073 24.6636 13.7725 25.1761C14.8055 25.8679 16.2506 26.8395 16.8221 27.2264C17.3777 27.6025 17.7094 27.8002 17.7847 27.8002C17.8018 27.8002 17.8249 27.7715 17.836 27.7365C17.8599 27.6613 18.0941 27.2985 18.1839 27.1977C18.2183 27.159 18.3031 27.1178 18.3723 27.1061C18.6093 27.0661 18.8845 27.2969 18.8845 27.5358C18.8845 27.6816 18.8253 27.8216 18.6089 28.1872C18.4987 28.3735 18.3596 28.6202 18.2998 28.7355C18.2085 28.9117 18.1761 28.9469 18.0977 28.9558C17.8561 28.9834 17.3768 28.699 15.4986 27.4139C15.1169 27.1528 14.2032 26.5371 13.4681 26.0458C12.733 25.5545 12.1137 25.127 12.0919 25.0959C12.0701 25.0647 11.9928 24.7134 11.9201 24.3153C11.7868 23.5847 11.7678 23.4983 11.6132 22.914C11.5202 22.5626 11.0472 20.227 11.0472 20.1193C11.0472 20.0259 11.1919 19.8629 11.3493 19.7789C11.4986 19.6993 11.5558 19.6914 11.6699 19.7348ZM39.4292 22.8483C39.9977 22.9089 40.336 22.9921 40.8144 23.1887C41.6717 23.5411 42.3567 24.0166 43.1039 24.778C43.7887 25.4759 44.4265 26.3685 44.9122 27.3084L45.083 27.639H45.3996C46.1421 27.639 46.9905 27.9322 47.5135 28.3695C48.1845 28.9306 48.6017 29.6955 48.7988 30.7258C48.8239 30.857 48.8543 31.1853 48.8664 31.4554C48.8907 31.9992 48.8702 32.0893 48.6969 32.2029C48.529 32.3129 48.1273 32.2427 48.0501 32.0898C48.0267 32.0435 48.0091 31.8896 48.0088 31.7289C48.0082 31.3451 47.8693 30.5651 47.7407 30.2231C47.6219 29.907 47.4551 29.5996 47.2753 29.3653C47.0352 29.0524 46.5347 28.7205 46.1861 28.6431C45.8944 28.5784 45.3747 28.5429 45.0178 28.5633C44.7802 28.5769 44.6447 28.5715 44.5981 28.5466C44.5574 28.5248 44.431 28.3157 44.2882 28.034C43.5733 26.6234 42.7911 25.5949 41.832 24.8044C41.2043 24.287 40.5399 23.968 39.735 23.7975C39.4435 23.7357 39.2839 23.7225 38.8326 23.7226C38.0741 23.7228 37.5522 23.8167 36.7846 24.0911C36.5806 24.164 36.3846 24.2324 36.3491 24.2431C36.2506 24.2728 35.53 24.6497 35.2465 24.8198C33.9555 25.5946 32.9968 26.4132 31.4273 28.0809C31.0492 28.4828 30.9955 28.5128 30.8338 28.4129C30.7093 28.336 30.4631 28.0483 30.4631 27.9797C30.4631 27.9076 30.7306 27.5381 31.0114 27.2222C32.7395 25.2783 34.8448 23.7962 36.8353 23.1221C37.2659 22.9763 37.5808 22.9096 38.1107 22.8518C38.6443 22.7937 38.9108 22.7929 39.4292 22.8483ZM50.4907 26.1577C51.365 26.2278 51.9752 26.4592 52.4384 26.8963C52.7455 27.186 52.867 27.5201 52.7374 27.7179C52.6654 27.8277 52.4343 27.9937 52.3533 27.9937C52.2382 27.9937 52.0774 27.8648 51.9162 27.6432C51.7762 27.4507 51.7266 27.4098 51.4877 27.2902C51.0335 27.0629 50.9103 27.0423 50.008 27.0424C49.5367 27.0425 49.0812 27.0601 48.8792 27.086C48.5423 27.1291 48.3842 27.1601 47.2225 27.4109C46.8878 27.4831 46.5297 27.5422 46.4266 27.5422C46.2629 27.5422 46.2308 27.5315 46.1728 27.4578C46.0663 27.3225 45.9963 27.0598 46.038 26.952C46.1577 26.6421 47.9321 26.2509 49.7016 26.1444C49.7903 26.1391 49.9072 26.1321 49.9612 26.1289C50.0154 26.1257 50.2536 26.1386 50.4907 26.1577ZM21.1583 27.4783C21.5486 27.5507 21.9494 27.6238 22.0491 27.6406C22.1487 27.6575 22.3955 27.709 22.5974 27.7552C23.1085 27.8721 23.4668 27.9481 24.0288 28.059C24.2948 28.1115 24.6722 28.1909 24.8673 28.2355C25.5773 28.3977 25.9403 28.4761 26.3671 28.5595C26.8615 28.6562 28.4457 28.9805 28.6408 29.025C28.7118 29.0412 28.8134 29.0639 28.8666 29.0755C29.0536 29.1162 30.5248 29.4173 31.7854 29.6729C32.4861 29.8149 33.3569 29.9972 33.7206 30.0779C34.0842 30.1586 34.7664 30.3029 35.2364 30.3985C35.7065 30.4941 36.2508 30.6091 36.4459 30.654C36.641 30.6989 37.0982 30.7939 37.4619 30.8651C37.8255 30.9363 38.2174 31.0157 38.3327 31.0416C38.448 31.0674 38.9269 31.1691 39.397 31.2675C39.8671 31.3658 40.4476 31.4885 40.6871 31.5401C41.2293 31.6569 42.4881 31.9206 43.235 32.074C43.5454 32.1378 44.1986 32.2755 44.6864 32.3801C45.1742 32.4846 45.762 32.6085 45.9926 32.6552C46.5738 32.7731 46.9557 32.8533 47.2021 32.9092C47.8448 33.0552 48.3487 33.1617 48.8953 33.2674C49.4334 33.3714 49.9173 33.4815 50.6083 33.6571C50.869 33.7233 51.1238 33.8435 51.1644 33.9195C51.2044 33.9942 51.1614 34.2095 51.0804 34.3401C51.0032 34.4646 50.8221 34.6829 50.4595 35.0884C50.291 35.2769 49.7758 35.8576 49.3146 36.3789C48.8534 36.9001 48.1277 37.7199 47.702 38.2007C47.2762 38.6813 46.8339 39.183 46.7189 39.3154C46.604 39.4479 46.3718 39.7095 46.2029 39.8968C46.034 40.0842 45.7652 40.3878 45.6056 40.5714C44.8758 41.411 44.6051 41.7005 44.5233 41.729C44.4324 41.7607 44.4423 41.7621 43.0093 41.5236C42.6456 41.463 42.0941 41.3772 41.7837 41.3327C41.2928 41.2623 40.038 41.0669 38.7681 40.8631C38.5552 40.8289 38.0472 40.7484 37.6392 40.6843C37.2312 40.6201 36.3242 40.4735 35.6235 40.3587C34.9228 40.2438 34.1028 40.114 33.8012 40.0702C33.4997 40.0265 33.0425 39.955 32.7853 39.9113C32.1548 39.8042 31.1826 39.6487 30.8663 39.6044C29.977 39.4798 29.1533 39.338 29.0707 39.2953C28.8826 39.198 28.8283 38.8877 28.9553 38.6358L29.0279 38.4919L29.3181 38.4816C29.5873 38.472 29.8533 38.4983 30.2535 38.5739C30.7989 38.677 31.1445 38.7371 31.5436 38.7984C31.7919 38.8365 32.1257 38.8878 32.2854 38.9123C32.445 38.9369 32.7788 38.9874 33.0272 39.0246C33.4931 39.0944 34.3612 39.2363 35.0107 39.3488C35.3827 39.4132 35.6533 39.4547 36.8813 39.6354C37.245 39.6889 37.5746 39.7404 37.614 39.7496C37.7419 39.7799 38.6238 39.9222 39.3002 40.0217C40.1415 40.1456 41.4481 40.3523 42.1546 40.4734C42.4561 40.5251 42.8698 40.596 43.0738 40.631C43.4685 40.6988 43.7982 40.7507 44.0518 40.7849C44.1973 40.8046 44.2147 40.7989 44.3215 40.6971C44.3842 40.6373 44.5388 40.4649 44.6649 40.3141C44.8636 40.0766 45.3184 39.5612 46.1055 38.6815C46.2208 38.5527 46.569 38.1598 46.8794 37.8084C47.1897 37.457 47.5743 37.0242 47.7341 36.8466C48.2321 36.293 48.5011 35.987 48.7673 35.6716C48.9087 35.5041 49.0826 35.301 49.1537 35.2201C49.4604 34.8719 49.8145 34.4332 49.8145 34.4016C49.8145 34.3921 49.731 34.3682 49.629 34.3485C49.4109 34.3063 49.1765 34.2563 48.476 34.1025C48.1922 34.0402 47.4738 33.8889 46.8795 33.7662C45.9314 33.5706 45.2765 33.4307 44.7831 33.3185C44.7033 33.3003 44.4203 33.241 44.1542 33.1866C43.0851 32.9682 42.5601 32.8584 42.2836 32.7953C42.1239 32.7588 41.6305 32.6571 41.187 32.5692C40.7435 32.4814 40.221 32.3728 40.0259 32.3279C39.8308 32.283 38.9722 32.1031 38.118 31.9282C37.2637 31.7532 36.509 31.5951 36.4408 31.5768C36.3727 31.5584 35.9686 31.4714 35.5428 31.3833C35.1171 31.2952 34.4205 31.15 33.9947 31.0606C32.5028 30.7474 31.7924 30.6006 30.705 30.3806C30.1019 30.2587 29.3762 30.1059 29.0924 30.0412C28.8086 29.9765 28.1482 29.8384 27.6249 29.7344C27.1016 29.6304 26.4485 29.4949 26.1735 29.4334C25.8986 29.3719 25.3688 29.2612 24.9963 29.1874C24.6238 29.1136 24.0318 28.9887 23.6807 28.9097C22.9987 28.7564 22.4896 28.653 21.8679 28.5416C21.457 28.4679 20.3424 28.22 20.0456 28.1362C19.948 28.1086 19.8501 28.0626 19.8279 28.0338C19.7397 27.9193 19.8061 27.5215 19.9377 27.375C19.9906 27.3161 20.0224 27.3109 20.223 27.3277C20.3472 27.3381 20.768 27.4059 21.1583 27.4783ZM6.81675 29.7449C6.85813 29.765 6.92918 29.8448 6.97462 29.9224C7.06996 30.0851 7.07035 30.053 6.95318 31.6382C6.91712 32.1261 6.85868 33.0767 6.8233 33.7508C6.69625 36.1713 6.56031 38.2828 6.46723 39.2815C6.3636 40.3935 6.28929 41.5045 6.14574 44.0876C6.12751 44.4158 6.09807 44.9424 6.08033 45.2579C6.06259 45.5734 6.04808 45.8745 6.04808 45.9271V46.0228H6.56412C6.84794 46.0228 7.08015 46.0187 7.08015 46.0138C7.08015 46.0088 7.10167 45.831 7.12795 45.6187C7.15421 45.4063 7.20465 44.9641 7.24 44.6359C7.34124 43.6963 7.49418 42.6225 7.62706 41.9182C7.66131 41.7366 7.74923 41.247 7.82247 40.8302C7.99505 39.8477 8.39044 37.7589 8.46655 37.4275C8.49916 37.2856 8.65149 36.5477 8.80511 35.7877C8.95872 35.0278 9.12672 34.2078 9.17842 33.9655C9.23016 33.7232 9.36649 33.0606 9.48144 32.4929C9.80264 30.9065 9.88169 30.6366 10.0503 30.5502C10.1637 30.4921 10.5468 30.4974 10.6074 30.558C10.6767 30.6274 10.6777 30.6321 10.8214 31.5737C10.8931 32.0438 10.9947 32.6461 11.0471 32.9122C11.1437 33.4022 11.2167 33.8798 11.3379 34.8151C11.4126 35.3913 11.5608 36.3404 11.6601 36.8793C11.7336 37.2781 11.8122 37.8092 11.9345 38.7338C12.041 39.5384 12.1245 40.0758 12.2401 40.7012C12.3589 41.3433 12.4145 41.7002 12.5167 42.475C12.6088 43.1741 12.8054 44.4271 12.9543 45.2649C13.0079 45.5664 13.0596 45.8591 13.0692 45.9152C13.086 46.0134 13.0936 46.0179 13.2683 46.0322C13.3682 46.0403 13.5225 46.0452 13.6111 46.043L13.7722 46.0389L13.7947 45.8454C13.8154 45.667 13.9062 42.2892 13.9819 38.8789C13.9992 38.0984 14.036 36.4729 14.0636 35.2666C14.0912 34.0604 14.1244 32.441 14.1374 31.668C14.1635 30.1131 14.1566 30.1598 14.379 30.0242C14.5329 29.9304 14.7999 29.9374 14.9006 30.038C15.06 30.1975 15.0601 30.2001 15.0015 33.0412C14.9478 35.6464 14.9174 36.8951 14.854 39.0885C14.8363 39.7005 14.8063 41.1519 14.7873 42.3138C14.7407 45.1672 14.7028 46.7058 14.6777 46.7672C14.6662 46.7952 14.5799 46.8424 14.4859 46.872C14.344 46.9168 14.1685 46.9258 13.4472 46.9257C12.9541 46.9256 12.5278 46.9112 12.4602 46.8924C12.3553 46.8633 12.3334 46.8386 12.2755 46.6838C12.2061 46.4984 12.0844 45.8252 11.9984 45.152C11.9062 44.4299 11.7586 43.44 11.6449 42.7814C11.5836 42.4267 11.4383 41.4688 11.322 40.6528C11.2057 39.8368 11.1041 39.1474 11.0963 39.1208C11.032 38.9027 10.8368 37.6199 10.6915 36.46C10.6032 35.7546 10.543 35.3677 10.4507 34.9119C10.4075 34.699 10.349 34.3289 10.3205 34.0894C10.292 33.85 10.2584 33.6272 10.2457 33.5945C10.2305 33.5553 10.1863 33.6926 10.116 33.9976C10.0574 34.2521 9.95381 34.6925 9.88588 34.9764C9.81796 35.2602 9.68105 35.906 9.58168 36.4116C9.21032 38.3006 9.04209 39.1405 9.0111 39.2604C8.93824 39.5423 8.33838 43.0286 8.22769 43.8135C8.12122 44.5684 8.04772 45.1906 8.00005 45.7402C7.93242 46.5198 7.89049 46.8042 7.8347 46.8613C7.76184 46.936 5.39942 46.952 5.28741 46.8786C5.20062 46.8218 5.11402 46.6703 5.07841 46.5129C5.04661 46.3726 5.15008 44.9739 5.27451 43.8619C5.32179 43.4392 5.43296 41.6496 5.54901 39.4433C5.66627 37.2138 5.75458 35.9514 5.87056 34.8474C5.93081 34.2735 5.99806 33.2691 6.07891 31.735C6.18096 29.7981 6.17096 29.8703 6.3497 29.7779C6.55002 29.6743 6.65552 29.6669 6.81675 29.7449ZM27.9422 30.6415C28.1162 30.7021 28.1234 30.7775 28.0803 32.0971C28.0445 33.1969 28.0297 33.5426 27.9459 35.2344C27.9101 35.9581 27.7983 37.6008 27.7703 37.8146C27.7295 38.1262 27.6551 39.3609 27.61 40.4754C27.5617 41.6668 27.5102 42.8114 27.481 43.3429L27.466 43.6142L27.5807 43.5042C27.6438 43.4437 27.9517 43.1115 28.2649 42.7659C28.5781 42.4204 28.9214 42.0425 29.0279 41.9261C29.9062 40.9658 30.1281 40.7194 30.1521 40.6778C30.1959 40.6021 30.5194 40.4721 30.6084 40.4944C30.6845 40.5135 30.8661 40.709 30.9434 40.8552C31.0174 40.9949 30.815 41.2722 29.949 42.218C29.6098 42.5884 29.1418 43.1137 28.6295 43.6992C28.4813 43.8685 28.162 44.2194 27.9199 44.4789C27.6778 44.7384 27.4186 45.0178 27.3439 45.0997C27.153 45.3089 27.0199 45.3677 26.8514 45.3172C26.7796 45.2957 26.6702 45.2337 26.6084 45.1794C26.5026 45.0866 26.4961 45.069 26.4961 44.8794C26.4961 44.7686 26.5176 44.3746 26.5439 44.0039C26.5882 43.379 26.6532 42.2828 26.7694 40.2012C26.7951 39.74 26.839 38.8474 26.8669 38.2177C26.916 37.1086 26.9617 36.1279 27.0614 34.041C27.1267 32.6755 27.2525 31.1813 27.3322 30.8268C27.3481 30.756 27.3878 30.6779 27.4204 30.6532C27.492 30.5989 27.8003 30.592 27.9422 30.6415ZM47.0063 34.8462C47.125 34.9076 47.2666 35.0769 47.2666 35.1575C47.2666 35.2679 47.1548 35.4465 46.7646 35.9601C46.2796 36.5983 45.7839 37.2051 45.5159 37.4887C45.3133 37.7032 45.3013 37.7105 45.1845 37.6915C44.978 37.658 44.7831 37.4232 44.7831 37.2079C44.7831 37.0872 44.8506 36.9748 45.135 36.6214C45.235 36.4971 45.359 36.3374 45.4106 36.2665C45.4621 36.1955 45.6142 36.0008 45.7485 35.8338C45.8827 35.6667 46.0702 35.4273 46.165 35.3016C46.3798 35.0171 46.5219 34.865 46.6054 34.83C46.7084 34.7869 46.9072 34.7949 47.0063 34.8462ZM37.5829 40.9568C38.439 41.2026 39.2298 41.7494 39.7166 42.4323C40.3771 43.3584 40.5976 44.4025 40.3671 45.513C40.1215 46.6968 39.2486 47.7351 38.0866 48.2256C37.6155 48.4244 37.3802 48.4738 36.8007 48.4954C36.2431 48.5162 35.8919 48.4691 35.4151 48.3096C34.296 47.9355 33.4351 47.0397 33.0299 45.8277C32.8747 45.3636 32.8385 45.0939 32.8591 44.5553C32.8784 44.0502 32.9348 43.7937 33.1426 43.2652C33.455 42.4709 34.0144 41.8004 34.7216 41.3728C34.95 41.2347 35.4848 41.0175 35.7907 40.9387C36.2347 40.8242 37.1536 40.8335 37.5829 40.9568ZM47.2504 41.701C47.2614 41.7187 47.2469 41.7332 47.2182 41.7332C47.1895 41.7332 47.175 41.7187 47.1859 41.701C47.1969 41.6832 47.2114 41.6687 47.2182 41.6687C47.225 41.6687 47.2395 41.6832 47.2504 41.701ZM36.0249 41.8102C35.4491 41.9058 34.7938 42.3195 34.3602 42.8613C34.1059 43.1788 33.9667 43.434 33.8757 43.749C33.809 43.98 33.8013 44.0729 33.8023 44.6359C33.8034 45.2995 33.8337 45.5085 33.9846 45.8938C34.265 46.6095 34.9955 47.2539 35.8181 47.5111C36.0327 47.5782 36.122 47.5864 36.6394 47.5867C37.1472 47.587 37.2515 47.5779 37.4715 47.5141C38.2812 47.2794 38.9581 46.6818 39.3471 45.8581C39.5378 45.4544 39.5744 45.2655 39.5744 44.6843C39.5744 44.2332 39.5649 44.1381 39.4988 43.9278C39.2665 43.1879 38.7088 42.4646 38.0919 42.1031C37.6114 41.8215 36.7187 41.695 36.0249 41.8102Z" fill="#FAFCFB"/>
</svg>
